<svg width="64" height="64" viewBox="0 0 64 64" fill="none" xmlns="http://www.w3.org/2000/svg">
<rect width="64" height="64" rx="6" fill="#9B5AB3"/>
<path d="M32 20C25.3827 20 20 25.3838 20 32C20 38.6162 25.3827 44 32 44C38.6173 44 44 38.6162 44 32C44 25.3838 38.6173 20 32 20ZM42.3256 32C42.3256 32.038 42.32 32.0748 42.32 32.1128C41.8199 32.23 41.3187 32.4856 40.9302 32.883C40.7606 32.7479 40.3721 32.3449 39.7436 31.1851C39.0493 29.9047 39.325 29.3098 39.7425 28.4089C39.8843 28.1042 40.0238 27.7972 40.1265 27.4802C40.2906 26.9946 40.2638 26.3494 40.1466 25.6763C41.5062 27.4266 42.3256 29.6167 42.3256 32ZM21.6744 32C21.6744 31.453 21.7291 30.9206 21.8117 30.397C22.7862 33.1966 24.973 34.3062 26.192 34.9213C26.3974 35.0251 26.6407 35.1479 26.7747 35.2316C26.8282 35.5297 26.8194 35.7395 26.8015 36.1046C26.7848 36.4696 26.7635 36.925 26.797 37.6339C26.864 39.0125 27.9848 39.5985 28.8041 40.0261C29.2953 40.2828 29.7607 40.525 29.9985 40.8766C30.1179 41.0474 30.2285 41.5832 30.1894 42.1559C25.3581 41.2975 21.6744 37.0757 21.6744 32ZM31.8526 42.3178C31.923 41.408 31.7555 40.4647 31.3793 39.9278C30.9116 39.2368 30.205 38.8673 29.581 38.5425C28.7505 38.1083 28.4882 37.9152 28.4714 37.5546C28.4413 36.9206 28.4614 36.512 28.4759 36.1849C28.4983 35.7139 28.5172 35.3064 28.3721 34.6824C28.2303 34.0741 27.6644 33.7883 26.9477 33.4266C25.4285 32.6609 22.9079 31.3794 23.0017 26.9533C24.7732 23.8065 28.1399 21.6744 32.0011 21.6744C32.4398 21.6744 32.8696 21.7112 33.2949 21.7648C33.1151 22.0004 32.8584 22.1957 32.595 22.2817C30.2877 23.0374 30.2631 25.0891 30.2463 26.4476C30.2329 27.5874 30.1593 27.795 29.993 27.8341C29.8534 27.824 29.4605 27.6119 29.2272 27.4846C28.6277 27.1587 28.0093 26.8216 27.3652 26.9779C26.8339 27.1029 26.1875 27.5963 25.981 28.2973C25.8783 28.6456 25.8058 29.3355 26.4744 30.0287C26.8785 30.4473 26.893 30.6114 26.9243 30.9384C26.9477 31.1885 26.9812 31.53 27.1643 31.9498C27.8687 33.5058 29.9818 33.2658 30.7855 33.1721C32.0335 33.0158 32.259 33.0091 32.8852 33.661C33.1398 33.9256 33.2882 34.2627 33.4445 34.6199C33.7425 35.2964 34.1488 36.2229 35.4069 36.368C36.3892 36.4897 37.0188 36.7989 37.2074 37.0523C37.2532 37.1137 37.2644 37.1561 37.2521 37.2276C37.1929 37.5781 36.7531 37.9967 36.243 38.4822C35.3969 39.286 34.2761 40.3643 33.8709 42.1492C33.2637 42.2609 32.6396 42.3278 32 42.3278C31.9498 42.3256 31.9017 42.3189 31.8526 42.3178ZM35.8389 41.5777C36.2296 40.8108 36.8167 40.2437 37.3961 39.6934C38.0938 39.0303 38.7513 38.4052 38.9042 37.5032C38.9924 36.9797 38.8707 36.4763 38.5515 36.0488C37.8504 35.1077 36.4104 34.8019 35.6078 34.7025C35.3444 34.6724 35.2741 34.6132 34.9794 33.9434C34.7907 33.5137 34.5551 32.9779 34.0941 32.499C32.8673 31.2219 31.856 31.3481 30.5879 31.5077C29.0564 31.6819 28.7516 31.3894 28.6958 31.2666C28.6243 31.1036 28.6121 30.9741 28.5942 30.7788C28.5406 30.2128 28.4301 29.6402 27.6811 28.8644C27.6186 28.7996 27.5929 28.755 27.5896 28.7661C27.6075 28.7181 27.7068 28.6255 27.6867 28.6132C27.8218 28.6255 28.2013 28.832 28.4279 28.9548C29.0229 29.2785 29.6391 29.6112 30.2854 29.4783C31.8906 29.1479 31.9085 27.5985 31.9219 26.4666C31.9408 24.9284 32.0591 24.2184 33.1174 23.8724C33.8876 23.6201 34.659 22.9727 35.0061 22.1232C35.9092 22.3989 36.7554 22.7985 37.5345 23.2964C38.0826 24.1381 38.7501 26.3282 38.5391 26.9555C38.4543 27.2167 38.3394 27.4612 38.2255 27.7046C37.7589 28.7103 37.1784 29.9628 38.2735 31.9832C39.219 33.7258 39.9781 34.5094 40.813 34.6054C40.8588 34.611 40.9113 34.6143 40.9704 34.6143C41.2685 34.6143 41.7116 34.5183 42.1191 34.0651C41.4192 37.491 39.0158 40.2995 35.8389 41.5777Z" fill="white"/>
</svg>
