<svg width="64" height="64" viewBox="0 0 64 64" fill="none" xmlns="http://www.w3.org/2000/svg">
<rect width="64" height="64" rx="6" fill="#9B5AB3"/>
<path d="M32 45C31.2759 45 30.5518 44.7192 30 44.1564L27.4605 41.5678C27.1299 41.2319 26.5993 41.1947 26.2271 41.4793L24.5201 42.7858C23.8475 43.2986 22.9649 43.3794 22.2169 42.9974C21.4664 42.6153 21 41.846 21 40.9908V24.8079C21 21.7078 22.6745 20 25.7143 20H38.2857C41.3255 20 43 21.7078 43 24.8079V40.9895C43 41.8447 42.5336 42.614 41.7831 42.9961C41.0351 43.3781 40.1513 43.2974 39.4799 42.7845L37.7715 41.4768C37.4006 41.1921 36.8689 41.2293 36.5395 41.5665L34 44.1551C33.4482 44.7192 32.7241 45 32 45ZM26.7903 39.3677C27.5207 39.3677 28.2486 39.6523 28.7942 40.2074L31.3337 42.7973C31.6894 43.1602 32.3105 43.1602 32.6676 42.7973L35.207 40.2087C36.1964 39.1997 37.7878 39.0869 38.9029 39.9408L40.6126 41.2485C40.7484 41.3537 40.8767 41.3113 40.9421 41.2793C41.0062 41.2459 41.1155 41.1652 41.1155 40.9921V24.8079C41.1155 22.786 40.2695 21.9232 38.2869 21.9232H25.7155C23.733 21.9232 22.8869 22.786 22.8869 24.8079V40.9895C22.8869 41.1626 22.9964 41.2434 23.0605 41.2767C23.1271 41.3101 23.2541 41.3511 23.3898 41.246L25.0983 39.9382C25.5986 39.5561 26.1957 39.3677 26.7903 39.3677ZM37.9714 28.6543C37.9714 28.1235 37.549 27.6927 37.0286 27.6927H26.9714C26.451 27.6927 26.0286 28.1235 26.0286 28.6543C26.0286 29.1851 26.451 29.6159 26.9714 29.6159H37.0286C37.549 29.6159 37.9714 29.1851 37.9714 28.6543ZM34.2 33.7828C34.2 33.252 33.7776 32.8212 33.2571 32.8212H26.9714C26.451 32.8212 26.0286 33.252 26.0286 33.7828C26.0286 34.3136 26.451 34.7444 26.9714 34.7444H33.2571C33.7776 34.7444 34.2 34.3136 34.2 33.7828Z" fill="white"/>
</svg>
