<svg width="64" height="64" viewBox="0 0 64 64" fill="none" xmlns="http://www.w3.org/2000/svg">
<rect width="64" height="64" rx="6" fill="#9B5AB3"/>
<path d="M30.9165 19C23.7478 19 17.9165 24.8313 17.9165 32C17.9165 39.1687 23.7478 45 30.9165 45C38.0852 45 43.9165 39.1687 43.9165 32C43.9165 24.8313 38.0852 19 30.9165 19ZM30.9165 43.186C24.7479 43.186 19.7305 38.1687 19.7305 32C19.7305 25.8313 24.7479 20.814 30.9165 20.814C37.0852 20.814 42.1026 25.8313 42.1026 32C42.1026 38.1687 37.0852 43.186 30.9165 43.186ZM34.6835 28.574H33.098V27.4155C33.098 26.4698 32.6277 25.5919 31.8416 25.0683C31.3495 24.7406 30.746 24.6595 30.1873 24.8385C29.6261 25.0187 29.1859 25.4395 28.967 26.026L27.7058 29.8511H26.1289C25.0998 29.8511 24.2642 30.6867 24.2642 31.7158V36.1842C24.2642 37.2121 25.0998 38.0489 26.1289 38.0489H33.4077C35.1951 38.0489 35.7501 37.1214 36.0851 36.1201L37.362 32.2902C37.7043 31.2599 37.6185 30.3118 37.1202 29.6201C36.7768 29.1412 36.0754 28.574 34.6835 28.574ZM26.0793 36.1818V31.6638H26.9863V36.1818H26.0793ZM35.64 31.7134L34.3642 35.5432C34.1683 36.1273 34.1345 36.2326 33.4077 36.2326L28.799 36.2011V31.5405C28.9937 31.4316 29.1509 31.2623 29.2235 31.041L30.6892 26.5932L30.8355 26.5763C31.116 26.7637 31.2841 27.0769 31.2841 27.4143V29.4798C31.2841 29.9805 31.6904 30.3868 32.1911 30.3868H34.6835C35.1696 30.3868 35.5142 30.4896 35.6485 30.6782C35.7899 30.8753 35.7876 31.272 35.64 31.7134Z" fill="white"/>
</svg>
