<svg width="65" height="64" viewBox="0 0 65 64" fill="none" xmlns="http://www.w3.org/2000/svg">
<rect x="0.5" width="64" height="64" rx="6" fill="#9B5AB3"/>
<g clip-path="url(#clip0_291_12554)">
<path d="M37.5 41.6309H25.5C24.7044 41.6309 23.9413 41.3148 23.3787 40.7522C22.8161 40.1896 22.5 39.4265 22.5 38.6309V30.6309C22.5 30.3656 22.3946 30.1113 22.2071 29.9238C22.0196 29.7362 21.7652 29.6309 21.5 29.6309C21.2348 29.6309 20.9804 29.7362 20.7929 29.9238C20.6054 30.1113 20.5 30.3656 20.5 30.6309V38.6309C20.5 39.9569 21.0268 41.2287 21.9645 42.1664C22.9021 43.1041 24.1739 43.6309 25.5 43.6309H37.5C37.7652 43.6309 38.0196 43.5255 38.2071 43.338C38.3946 43.1504 38.5 42.8961 38.5 42.6309C38.5 42.3656 38.3946 42.1113 38.2071 41.9238C38.0196 41.7362 37.7652 41.6309 37.5 41.6309ZM41.5 23.6309H27.5C26.7044 23.6309 25.9413 23.9469 25.3787 24.5095C24.8161 25.0721 24.5 25.8352 24.5 26.6309V36.6309C24.5 37.4265 24.8161 38.1896 25.3787 38.7522C25.9413 39.3148 26.7044 39.6309 27.5 39.6309H41.5C42.2956 39.6309 43.0587 39.3148 43.6213 38.7522C44.1839 38.1896 44.5 37.4265 44.5 36.6309V26.6309C44.5 25.8352 44.1839 25.0721 43.6213 24.5095C43.0587 23.9469 42.2956 23.6309 41.5 23.6309ZM41.09 25.6309L35.21 31.5109C35.117 31.6046 35.0064 31.679 34.8846 31.7298C34.7627 31.7805 34.632 31.8067 34.5 31.8067C34.368 31.8067 34.2373 31.7805 34.1154 31.7298C33.9936 31.679 33.883 31.6046 33.79 31.5109L27.91 25.6309H41.09ZM42.5 36.6309C42.5 36.8961 42.3946 37.1504 42.2071 37.338C42.0196 37.5255 41.7652 37.6309 41.5 37.6309H27.5C27.2348 37.6309 26.9804 37.5255 26.7929 37.338C26.6054 37.1504 26.5 36.8961 26.5 36.6309V27.0009L32.38 32.8809C32.9425 33.4427 33.705 33.7582 34.5 33.7582C35.295 33.7582 36.0575 33.4427 36.62 32.8809L42.5 27.0009V36.6309Z" fill="white"/>
</g>
<defs>
<clipPath id="clip0_291_12554">
<rect width="24" height="24" fill="white" transform="translate(20.5 20)"/>
</clipPath>
</defs>
</svg>
