<svg width="65" height="64" viewBox="0 0 65 64" fill="none" xmlns="http://www.w3.org/2000/svg">
<circle cx="32.5" cy="32" r="32" fill="#DCFCE7"/>
<rect x="0.5" width="64" height="64" rx="6" fill="#9B5AB3"/>
<path d="M42.21 27.2899C42.117 27.1962 42.0064 27.1218 41.8846 27.071C41.7627 27.0203 41.632 26.9941 41.5 26.9941C41.368 26.9941 41.2373 27.0203 41.1154 27.071C40.9936 27.1218 40.883 27.1962 40.79 27.2899L34.5 33.5899L30.21 29.2899C30.117 29.1962 30.0064 29.1218 29.8846 29.071C29.7627 29.0203 29.632 28.9941 29.5 28.9941C29.368 28.9941 29.2373 29.0203 29.1154 29.071C28.9936 29.1218 28.883 29.1962 28.79 29.2899L22.79 35.2899C22.6963 35.3829 22.6219 35.4935 22.5711 35.6154C22.5203 35.7372 22.4942 35.8679 22.4942 35.9999C22.4942 36.132 22.5203 36.2627 22.5711 36.3845C22.6219 36.5064 22.6963 36.617 22.79 36.7099C22.883 36.8037 22.9936 36.8781 23.1154 36.9288C23.2373 36.9796 23.368 37.0057 23.5 37.0057C23.632 37.0057 23.7627 36.9796 23.8846 36.9288C24.0064 36.8781 24.117 36.8037 24.21 36.7099L29.5 31.4099L33.79 35.7099C33.883 35.8037 33.9936 35.8781 34.1154 35.9288C34.2373 35.9796 34.368 36.0057 34.5 36.0057C34.632 36.0057 34.7627 35.9796 34.8846 35.9288C35.0064 35.8781 35.117 35.8037 35.21 35.7099L42.21 28.7099C42.3037 28.617 42.3781 28.5064 42.4289 28.3845C42.4797 28.2627 42.5058 28.132 42.5058 27.9999C42.5058 27.8679 42.4797 27.7372 42.4289 27.6154C42.3781 27.4935 42.3037 27.3829 42.21 27.2899Z" fill="white"/>
</svg>
