<svg width="65" height="64" viewBox="0 0 65 64" fill="none" xmlns="http://www.w3.org/2000/svg">
<rect x="0.5" width="64" height="64" rx="6" fill="#9B5AB3"/>
<path d="M32.8 32.22C33.3336 31.7581 33.7616 31.1869 34.0549 30.545C34.3482 29.9032 34.5 29.2057 34.5 28.5C34.5 27.1739 33.9732 25.9021 33.0355 24.9645C32.0979 24.0268 30.8261 23.5 29.5 23.5C28.1739 23.5 26.9021 24.0268 25.9645 24.9645C25.0268 25.9021 24.5 27.1739 24.5 28.5C24.5 29.2057 24.6518 29.9032 24.9451 30.545C25.2384 31.1869 25.6664 31.7581 26.2 32.22C24.8001 32.8539 23.6125 33.8775 22.779 35.1685C21.9455 36.4596 21.5015 37.9633 21.5 39.5C21.5 39.7652 21.6054 40.0196 21.7929 40.2071C21.9804 40.3946 22.2348 40.5 22.5 40.5C22.7652 40.5 23.0196 40.3946 23.2071 40.2071C23.3946 40.0196 23.5 39.7652 23.5 39.5C23.5 37.9087 24.1321 36.3826 25.2574 35.2574C26.3826 34.1321 27.9087 33.5 29.5 33.5C31.0913 33.5 32.6174 34.1321 33.7426 35.2574C34.8679 36.3826 35.5 37.9087 35.5 39.5C35.5 39.7652 35.6054 40.0196 35.7929 40.2071C35.9804 40.3946 36.2348 40.5 36.5 40.5C36.7652 40.5 37.0196 40.3946 37.2071 40.2071C37.3946 40.0196 37.5 39.7652 37.5 39.5C37.4985 37.9633 37.0545 36.4596 36.221 35.1685C35.3875 33.8775 34.1999 32.8539 32.8 32.22ZM29.5 31.5C28.9067 31.5 28.3266 31.3241 27.8333 30.9944C27.3399 30.6648 26.9554 30.1962 26.7284 29.6481C26.5013 29.0999 26.4419 28.4967 26.5576 27.9147C26.6734 27.3328 26.9591 26.7982 27.3787 26.3787C27.7982 25.9591 28.3328 25.6734 28.9147 25.5576C29.4967 25.4419 30.0999 25.5013 30.6481 25.7284C31.1962 25.9554 31.6648 26.3399 31.9944 26.8333C32.3241 27.3266 32.5 27.9067 32.5 28.5C32.5 29.2956 32.1839 30.0587 31.6213 30.6213C31.0587 31.1839 30.2956 31.5 29.5 31.5ZM39.24 31.82C39.88 31.0993 40.298 30.2091 40.4438 29.2563C40.5896 28.3036 40.4569 27.3291 40.0618 26.45C39.6666 25.5709 39.0258 24.8248 38.2165 24.3014C37.4071 23.7781 36.4638 23.4997 35.5 23.5C35.2348 23.5 34.9804 23.6054 34.7929 23.7929C34.6054 23.9804 34.5 24.2348 34.5 24.5C34.5 24.7652 34.6054 25.0196 34.7929 25.2071C34.9804 25.3946 35.2348 25.5 35.5 25.5C36.2956 25.5 37.0587 25.8161 37.6213 26.3787C38.1839 26.9413 38.5 27.7044 38.5 28.5C38.4986 29.0252 38.3593 29.5409 38.0961 29.9954C37.8328 30.4499 37.4549 30.8274 37 31.09C36.8517 31.1755 36.7279 31.2977 36.6404 31.4447C36.5528 31.5918 36.5045 31.7589 36.5 31.93C36.4958 32.0998 36.5349 32.2678 36.6137 32.4183C36.6924 32.5687 36.8081 32.6967 36.95 32.79L37.34 33.05L37.47 33.12C38.6754 33.6917 39.6923 34.596 40.401 35.7263C41.1096 36.8566 41.4805 38.1659 41.47 39.5C41.47 39.7652 41.5754 40.0196 41.7629 40.2071C41.9504 40.3946 42.2048 40.5 42.47 40.5C42.7352 40.5 42.9896 40.3946 43.1771 40.2071C43.3646 40.0196 43.47 39.7652 43.47 39.5C43.4782 37.9654 43.0938 36.4543 42.3535 35.1101C41.6131 33.7659 40.5413 32.6333 39.24 31.82Z" fill="white"/>
</svg>
