<svg width="24" height="24" viewBox="0 0 24 24" fill="none" xmlns="http://www.w3.org/2000/svg">
<rect width="24" height="24" rx="4" fill="#9B5AB3"/>
<path d="M14.018 7.13497V7.13281H14.5807L14.7863 7.17387C14.9234 7.20053 15.0478 7.23547 15.1596 7.27869C15.2714 7.32191 15.3796 7.37234 15.4842 7.42997C15.5888 7.48759 15.6837 7.54631 15.7688 7.6061C15.8532 7.66517 15.929 7.72784 15.996 7.79412C16.0624 7.86111 16.1659 7.8784 16.3066 7.84598C16.4473 7.81357 16.5987 7.76854 16.761 7.71091C16.9234 7.65329 17.0839 7.58845 17.2426 7.51641C17.4013 7.44437 17.4979 7.39863 17.5326 7.37918C17.5665 7.35902 17.5845 7.34821 17.5867 7.34676L17.5888 7.34352L17.5996 7.33812L17.6105 7.33272L17.6213 7.32731L17.6321 7.32191L17.6343 7.31867L17.6375 7.31651L17.6408 7.31435L17.6429 7.3111L17.6537 7.30786L17.6646 7.3057L17.6624 7.32191L17.6592 7.33812L17.6537 7.35433L17.6483 7.37054L17.6429 7.38134L17.6375 7.39215L17.6321 7.40836C17.6285 7.41916 17.6249 7.43356 17.6213 7.45158C17.6177 7.46959 17.5834 7.54162 17.5185 7.66769C17.4536 7.79376 17.3724 7.92162 17.275 8.05129C17.1776 8.18096 17.0904 8.27892 17.0132 8.3452C16.9353 8.4122 16.8837 8.45902 16.8584 8.48567C16.8332 8.51304 16.8025 8.53825 16.7665 8.56131L16.7124 8.59697L16.7015 8.60237L16.6907 8.60778L16.6886 8.61102L16.6853 8.61318L16.6821 8.61534L16.6799 8.61858L16.6691 8.62399L16.6583 8.62939L16.6561 8.63263L16.6528 8.63479L16.6496 8.63695L16.6474 8.64019L16.6453 8.64344L16.642 8.6456L16.6388 8.64776L16.6366 8.651H16.6907L16.9937 8.58617C17.1957 8.54294 17.3886 8.49072 17.5726 8.42949L17.8647 8.33223L17.8972 8.32143L17.9134 8.31603L17.9243 8.31062L17.9351 8.30522L17.9459 8.29982L17.9567 8.29441L17.9784 8.29117L18 8.28901V8.31062L17.9946 8.31278L17.9892 8.31603L17.987 8.31927L17.9838 8.32143L17.9805 8.32359L17.9784 8.32683L17.9762 8.33007L17.9729 8.33223L17.9697 8.3344L17.9675 8.33764L17.9654 8.34088L17.9621 8.34304L17.9567 8.35385L17.9513 8.36465L17.9481 8.36681C17.9466 8.36897 17.9008 8.4302 17.8106 8.55051C17.7205 8.67153 17.6718 8.73276 17.6646 8.7342C17.6574 8.73636 17.6472 8.74717 17.6343 8.76662C17.622 8.78678 17.5455 8.86711 17.4049 9.00758C17.2642 9.14806 17.1264 9.27304 16.9915 9.38254C16.8559 9.49276 16.7874 9.62818 16.7859 9.78883C16.7838 9.94875 16.7755 10.1296 16.761 10.3313C16.7466 10.533 16.7196 10.7509 16.6799 10.985C16.6402 11.2191 16.5789 11.4839 16.4959 11.7792C16.413 12.0746 16.312 12.3627 16.193 12.6437C16.0739 12.9246 15.9495 13.1767 15.8197 13.4001C15.6898 13.6234 15.5708 13.8125 15.4626 13.9674C15.3544 14.1222 15.2444 14.2681 15.1326 14.405C15.0207 14.5419 14.8794 14.696 14.7084 14.8675C14.5367 15.0382 14.4429 15.1318 14.4271 15.1484C14.4105 15.1643 14.3398 15.2233 14.215 15.3256C14.0909 15.4286 13.9574 15.5316 13.8146 15.6347C13.6725 15.737 13.5419 15.8223 13.4229 15.8908C13.3039 15.9592 13.1603 16.0373 12.9922 16.1252C12.8249 16.2138 12.6438 16.296 12.4491 16.3716C12.2543 16.4472 12.0487 16.5175 11.8323 16.5823C11.6159 16.6471 11.4067 16.6976 11.2047 16.7336C11.0027 16.7696 10.7737 16.8002 10.5176 16.8254L10.1335 16.8633V16.8687H9.43012V16.8633L9.33814 16.8579C9.27683 16.8543 9.22633 16.8506 9.18665 16.8471C9.14699 16.8435 8.99729 16.8236 8.7376 16.7876C8.47791 16.7516 8.27412 16.7156 8.12624 16.6796C7.97837 16.6435 7.75834 16.5751 7.46619 16.4743C7.17403 16.3734 6.92408 16.2715 6.71632 16.1685C6.50929 16.0662 6.37944 16.0013 6.32678 15.974C6.27484 15.9473 6.21641 15.9142 6.15149 15.8745L6.0541 15.8151L6.05195 15.8119L6.04869 15.8097L6.04545 15.8076L6.04328 15.8043L6.03246 15.7989L6.02164 15.7935L6.01949 15.7903L6.01623 15.7881L6.01298 15.7859L6.01082 15.7827L6.00867 15.7795L6.00541 15.7773H6V15.7557L6.01082 15.7578L6.02164 15.7611L6.07033 15.7665C6.1028 15.7701 6.19117 15.7755 6.33544 15.7827C6.47972 15.7899 6.633 15.7899 6.79531 15.7827C6.95762 15.7755 7.12354 15.7593 7.29306 15.7341C7.46258 15.7089 7.66276 15.6656 7.8936 15.6044C8.12444 15.5432 8.33653 15.4704 8.52986 15.3861C8.72246 15.3011 8.85952 15.2377 8.94104 15.196C9.02183 15.1549 9.14518 15.0785 9.31109 14.9669L9.55996 14.7994L9.56213 14.7961L9.56537 14.794L9.56863 14.7918L9.57078 14.7886L9.57295 14.7853L9.57619 14.7832L9.57945 14.781L9.58161 14.7778L9.59243 14.7745L9.60325 14.7724L9.60541 14.7616L9.60866 14.7508L9.61191 14.7486L9.61407 14.7454L9.5275 14.74C9.4698 14.7364 9.41389 14.7328 9.35978 14.7292C9.30568 14.7256 9.22092 14.7093 9.1055 14.6805C8.99009 14.6517 8.86565 14.6085 8.73219 14.5509C8.59874 14.4932 8.46889 14.4248 8.34265 14.3456C8.21642 14.2663 8.12516 14.2004 8.06889 14.1478C8.01335 14.0959 7.94121 14.0225 7.85248 13.9274C7.76448 13.8316 7.68801 13.7332 7.62308 13.6324C7.55816 13.5315 7.49613 13.4152 7.43698 13.2834L7.34716 13.0867L7.34175 13.0705L7.33634 13.0543L7.33309 13.0435L7.33093 13.0327L7.34716 13.0348L7.36339 13.0381L7.48242 13.0543C7.56177 13.0651 7.68621 13.0687 7.85573 13.0651C8.02525 13.0615 8.14247 13.0543 8.20739 13.0435C8.27232 13.0327 8.312 13.0255 8.32642 13.0219L8.34806 13.0165L8.37511 13.0111L8.40216 13.0057L8.40433 13.0024L8.40757 13.0003L8.41083 12.9981L8.41298 12.9949L8.39134 12.9895L8.3697 12.984L8.34806 12.9786L8.32642 12.9732L8.30478 12.9678C8.29036 12.9642 8.26511 12.957 8.22904 12.9462C8.19297 12.9354 8.09559 12.8958 7.93688 12.8274C7.77819 12.7589 7.65194 12.6923 7.55816 12.6275C7.46415 12.5624 7.3745 12.4913 7.28981 12.4146C7.20541 12.3368 7.11272 12.2367 7.01172 12.1142C6.91073 11.9917 6.82057 11.8495 6.74121 11.6874C6.66186 11.5253 6.60235 11.3704 6.56267 11.2227C6.52315 11.0759 6.49708 10.9258 6.48477 10.7743L6.46528 10.5474L6.4761 10.5495L6.48693 10.5528L6.49775 10.5582L6.50857 10.5636L6.51939 10.569L6.53021 10.5744L6.69793 10.65C6.80975 10.7005 6.94861 10.7437 7.11452 10.7797C7.28044 10.8157 7.37962 10.8355 7.41208 10.8391L7.46078 10.8445H7.55816L7.55601 10.8413L7.55275 10.8391L7.5495 10.837L7.54734 10.8337L7.54519 10.8305L7.54193 10.8283L7.53868 10.8262L7.53652 10.8229L7.5257 10.8175L7.51488 10.8121L7.51272 10.8089L7.50947 10.8067L7.50622 10.8046L7.50406 10.8013L7.49324 10.7959L7.48242 10.7905L7.48026 10.7873C7.4781 10.7858 7.44708 10.7628 7.3872 10.7181C7.32804 10.6727 7.26601 10.614 7.20108 10.542C7.13616 10.4699 7.07124 10.3943 7.00631 10.3151C6.94127 10.2356 6.88334 10.1507 6.83318 10.0611C6.78269 9.97109 6.72931 9.85654 6.67304 9.71751C6.6175 9.5792 6.5753 9.43981 6.54644 9.29934C6.51759 9.15886 6.50136 9.0202 6.49775 8.88332C6.49414 8.74645 6.49775 8.62939 6.50857 8.53214C6.51939 8.43489 6.54103 8.32503 6.57349 8.20257C6.60595 8.08011 6.65285 7.95044 6.71416 7.81357L6.80613 7.60826L6.81154 7.59205L6.81695 7.57584L6.82021 7.57368L6.82236 7.57044L6.82453 7.5672L6.82777 7.56504L6.83103 7.5672L6.83318 7.57044L6.83535 7.57368L6.83859 7.57584L6.84185 7.578L6.844 7.58125L6.84617 7.58449L6.84941 7.58665L6.85482 7.59745L6.86023 7.60826L6.86349 7.61042L6.86564 7.61366L7.01172 7.77575C7.10911 7.8838 7.22453 8.00447 7.35798 8.13773C7.49144 8.271 7.56538 8.34016 7.5798 8.3452C7.59424 8.35096 7.61226 8.36753 7.6339 8.39491C7.65555 8.42156 7.72769 8.48532 7.85032 8.58617C7.97296 8.68702 8.13346 8.80408 8.33183 8.93735C8.53021 9.07061 8.75023 9.20209 8.99188 9.33175C9.23355 9.46142 9.49324 9.57848 9.77096 9.68294C10.0487 9.78739 10.2435 9.85582 10.3553 9.88824C10.4671 9.92066 10.6583 9.96208 10.9288 10.0125C11.1993 10.0629 11.4031 10.0954 11.5401 10.1098C11.6772 10.1242 11.771 10.1324 11.8215 10.1346L11.8972 10.1368L11.8951 10.1206L11.8918 10.1044L11.8702 9.96928C11.8557 9.87924 11.8485 9.75317 11.8485 9.59109C11.8485 9.429 11.8611 9.27953 11.8864 9.14266C11.9116 9.00578 11.9495 8.86711 12 8.72664C12.0505 8.58617 12.0999 8.47342 12.1482 8.38842C12.1973 8.30414 12.2615 8.20797 12.3408 8.09991C12.4202 7.99186 12.523 7.8802 12.6492 7.76494C12.7755 7.64968 12.9197 7.54702 13.0821 7.45698C13.2444 7.36694 13.3941 7.29849 13.5311 7.25167C13.6682 7.20485 13.7836 7.17423 13.8774 7.15983C13.9711 7.14542 14.018 7.13713 14.018 7.13497Z" fill="white"/>
</svg>
