<svg width="24" height="24" viewBox="0 0 24 24" fill="none" xmlns="http://www.w3.org/2000/svg">
<rect width="24" height="24" rx="4" fill="#9B5AB3"/>
<path d="M12.2923 16.6528L9.58421 16.6022C8.70738 16.5845 7.82837 16.6198 6.96873 16.437C5.66102 16.164 5.56837 14.8254 5.47143 13.7026C5.33786 12.124 5.38957 10.5168 5.64164 8.95144C5.78395 8.07309 6.34397 7.54898 7.21002 7.49194C10.1336 7.28496 13.0766 7.30949 15.9937 7.40606C16.3018 7.41491 16.612 7.46329 16.9157 7.51837C18.4153 7.78698 18.4519 9.30391 18.5491 10.5809C18.646 11.871 18.6051 13.1678 18.4198 14.4492C18.2711 15.5101 17.9867 16.3998 16.7865 16.4857C15.2826 16.598 13.8133 16.6884 12.3052 16.6596C12.3053 16.6528 12.2966 16.6528 12.2923 16.6528ZM10.7002 13.9668C11.8335 13.3019 12.9451 12.648 14.0719 11.9875C12.9365 11.3226 11.827 10.6687 10.7002 10.0082V13.9668Z" fill="white"/>
</svg>
