<svg width="24" height="24" viewBox="0 0 24 24" fill="none" xmlns="http://www.w3.org/2000/svg">
<rect width="24" height="24" rx="4" fill="#9B5AB3"/>
<path d="M6 7.61272C6 7.22791 6.13514 6.91045 6.40541 6.66034C6.67567 6.41021 7.02703 6.28516 7.45946 6.28516C7.88417 6.28516 8.2278 6.40828 8.49035 6.65456C8.76061 6.90853 8.89575 7.23945 8.89575 7.64735C8.89575 8.01676 8.76448 8.32459 8.50193 8.57087C8.23166 8.82484 7.87645 8.95182 7.43629 8.95182H7.42471C7 8.95182 6.65637 8.82484 6.39382 8.57087C6.13127 8.3169 6 7.99751 6 7.61272ZM6.15058 17.7137V10.0023H8.72201V17.7137H6.15058ZM10.1467 17.7137H12.7181V13.4078C12.7181 13.1384 12.749 12.9306 12.8108 12.7844C12.9189 12.5228 13.083 12.3015 13.3031 12.1207C13.5232 11.9398 13.7992 11.8494 14.1313 11.8494C14.9961 11.8494 15.4286 12.4304 15.4286 13.5925V17.7137H18V13.2924C18 12.1534 17.7297 11.2895 17.1892 10.7007C16.6486 10.112 15.9344 9.81762 15.0463 9.81762C14.0502 9.81762 13.2741 10.2448 12.7181 11.099V11.1221H12.7066L12.7181 11.099V10.0023H10.1467C10.1622 10.2486 10.1699 11.0143 10.1699 12.2996C10.1699 13.5848 10.1622 15.3895 10.1467 17.7137Z" fill="white"/>
</svg>
