<svg width="193" height="90" viewBox="0 0 193 90" fill="none" xmlns="http://www.w3.org/2000/svg">
<mask id="mask0_292_18359" style="mask-type:luminance" maskUnits="userSpaceOnUse" x="150" y="18" width="24" height="25">
<path d="M150.973 18.332H173.552V42.3831H150.973V18.332Z" fill="white"/>
</mask>
<g mask="url(#mask0_292_18359)">
<path d="M171.719 19.0913C170.43 19.1297 169.134 19.1873 167.851 19.3344C167.202 19.408 166.559 19.5232 165.922 19.6671C160.324 20.9468 154.562 23.9604 152.665 29.7252C151.737 32.5372 151.382 35.5284 151.51 38.4812C151.516 38.5932 151.584 39.5817 151.676 40.519C155.275 33.1195 161.063 26.9164 168.021 22.8823C161.127 27.6362 155.867 34.5047 153.071 42.1794C154.722 42.0674 157.876 41.8403 159.959 41.6387C162.883 41.3508 165.647 39.9016 167.682 37.7806C169.716 35.6628 171.034 32.9019 171.594 30.0163C171.956 28.1448 172.068 26.2381 172.317 24.3507C172.442 23.4165 172.599 22.4856 172.839 21.5706C173.044 20.7868 173.706 19.0625 173.706 19.0625C173.667 19.1649 171.866 19.0881 171.719 19.0913Z" fill="#1A1A1A"/>
</g>
<mask id="mask1_292_18359" style="mask-type:luminance" maskUnits="userSpaceOnUse" x="126" y="18" width="23" height="25">
<path d="M126.256 18.332H148.516V42.3831H126.256V18.332Z" fill="white"/>
</mask>
<g mask="url(#mask1_292_18359)">
<path d="M128.24 19.0913C129.532 19.1297 130.828 19.1873 132.111 19.3344C132.76 19.408 133.403 19.5232 134.04 19.6671C139.638 20.9468 145.4 23.9604 147.297 29.7252C148.222 32.5372 148.58 35.5284 148.452 38.4812C148.446 38.5932 148.378 39.5817 148.286 40.519C144.687 33.1195 138.899 26.9164 131.941 22.8823C138.835 27.6362 144.092 34.5047 146.891 42.1794C145.24 42.0674 142.083 41.8403 140.003 41.6387C137.076 41.3508 134.315 39.9016 132.28 37.7806C130.246 35.6628 128.928 32.9019 128.368 30.0163C128.003 28.1448 127.891 26.2381 127.645 24.3507C127.52 23.4165 127.363 22.4856 127.123 21.5706C126.919 20.7868 126.256 19.0625 126.256 19.0625C126.295 19.1649 128.096 19.0881 128.24 19.0913Z" fill="#1A1A1A"/>
</g>
<mask id="mask2_292_18359" style="mask-type:luminance" maskUnits="userSpaceOnUse" x="139" y="0" width="22" height="34">
<path d="M139.507 0H160.8V33.0726H139.507V0Z" fill="white"/>
</mask>
<g mask="url(#mask2_292_18359)">
<path d="M159.991 20.6603C156.59 22.3046 153.16 25.0015 151.714 29.4163C151.366 30.4688 151.094 31.5501 150.892 32.6538L149.981 10.7494L149.069 32.6858C148.877 31.5629 148.595 30.4688 148.247 29.4067C146.801 25.0111 143.381 22.3046 139.98 20.6603C140.533 18.0818 141.445 15.7464 142.479 13.9101C143.493 12.1026 144.776 10.4999 146.993 6.30581C148.355 3.70812 149.35 1.51352 149.981 0.0195312C150.624 1.51352 151.615 3.70812 152.978 6.30581C155.186 10.4999 156.481 12.1026 157.492 13.9101C158.525 15.7464 159.437 18.0818 159.991 20.6603Z" fill="#1A1A1A"/>
</g>
<mask id="mask3_292_18359" style="mask-type:luminance" maskUnits="userSpaceOnUse" x="33" y="24" width="88" height="17">
<path d="M33.605 24.3906H120.212V40.9749H33.605V24.3906Z" fill="white"/>
</mask>
<g mask="url(#mask3_292_18359)">
<path d="M33.6665 34.3499C33.8201 33.9564 33.9672 33.6397 34.1656 33.3582C35.6852 31.2275 37.4735 29.3721 39.6937 27.9612C41.9939 26.4992 44.4892 25.5267 47.1509 24.9669C49.3039 24.5158 51.4858 24.391 53.6836 24.4998C57.3978 24.6853 60.9808 25.5043 64.4839 26.7136C67.0816 27.6093 69.5961 28.7066 72.1075 29.8135C74.766 30.9876 77.4213 32.1585 80.1437 33.1726C82.7894 34.1579 85.4831 34.9833 88.2536 35.5368C90.3522 35.9559 92.4701 36.2214 94.6071 36.3365C96.437 36.4357 98.2669 36.4037 100.09 36.2438C102.179 36.0614 104.24 35.6935 106.274 35.1849C108.92 34.5226 111.515 33.7005 114.01 32.5904C115.328 32.0049 116.579 31.3011 117.756 30.4694C118.498 29.9447 119.17 29.3273 119.858 28.7354C119.916 28.6874 119.954 28.6203 120.05 28.5979C119.951 29.0585 119.791 29.4872 119.541 29.8839C117.881 32.4912 115.689 34.5258 112.98 36.0102C110.872 37.1683 108.642 38.0353 106.345 38.7423C103.865 39.5069 101.341 40.0667 98.7756 40.4378C97.3232 40.6458 95.858 40.7801 94.3895 40.8505C93.1835 40.9081 91.9774 40.9209 90.7713 40.8793C89.1749 40.8217 87.585 40.6874 86.0014 40.4794C80.4541 39.7596 75.1019 38.2752 69.8425 36.4165C67.024 35.4248 64.2408 34.3339 61.4351 33.3134C58.7638 32.344 56.0701 31.4451 53.3061 30.7797C51.2874 30.2934 49.2496 29.9287 47.1765 29.8071C43.5007 29.596 40.0392 30.367 36.8017 32.1361C36.4498 32.328 36.1107 32.5456 35.7907 32.7887C35.1349 33.2878 34.4375 33.7325 33.8073 34.2667C33.7849 34.2859 33.7561 34.2987 33.6665 34.3499Z" fill="#1A1A1A"/>
</g>
<path d="M15.1842 74.0631C13.1879 74.0631 11.3132 73.692 9.56647 72.9498C7.82613 72.2012 6.29374 71.1647 4.97249 69.8403C3.64804 68.5095 2.61152 66.9739 1.86292 65.2336C1.11112 63.4868 0.736816 61.6121 0.736816 59.6159C0.736816 57.6196 1.11112 55.7577 1.86292 54.0238C2.61152 52.2835 3.64804 50.7543 4.97249 49.4299C6.29374 48.1086 7.81973 47.0753 9.55367 46.3331C11.2844 45.5845 13.1495 45.207 15.1458 45.207C17.1421 45.207 19.0136 45.5845 20.7635 46.3331C22.5102 47.0753 24.0458 48.1086 25.3703 49.4299C26.6915 50.7543 27.7248 52.2835 28.467 54.0238C29.2156 55.7577 29.5931 57.6196 29.5931 59.6159C29.5931 61.6121 29.2156 63.4868 28.467 65.2336C27.7248 66.9739 26.6915 68.5095 25.3703 69.8403C24.0458 71.1647 22.5166 72.2012 20.7763 72.9498C19.0423 73.692 17.1804 74.0631 15.1842 74.0631ZM15.1458 50.7479C13.575 50.7479 12.145 51.151 10.8589 51.9508C9.57926 52.7442 8.56193 53.8127 7.81333 55.1499C7.06153 56.4807 6.68723 57.9715 6.68723 59.6159C6.68723 61.2634 7.06153 62.7606 7.81333 64.1075C8.56193 65.4575 9.57926 66.5228 10.8589 67.3066C12.145 68.0936 13.5878 68.4839 15.1842 68.4839C16.7518 68.4839 18.1818 68.0936 19.471 67.3066C20.7571 66.5228 21.7744 65.4575 22.5166 64.1075C23.2652 62.7606 23.6427 61.2634 23.6427 59.6159C23.6427 57.9715 23.262 56.4807 22.5038 55.1499C21.7424 53.8127 20.7187 52.7442 19.4326 51.9508C18.1434 51.151 16.7134 50.7479 15.1458 50.7479Z" fill="#1A1A1A"/>
<path d="M42.9552 68.7526H40.0376V73.5769H34.2407V45.6934H43.9277C45.5721 45.6934 47.0949 45.9749 48.4961 46.5379C49.8942 47.0946 51.1194 47.8784 52.1688 48.8925C53.2181 49.9002 54.0307 51.0647 54.6129 52.3859C55.2015 53.7104 55.4959 55.134 55.4959 56.66C55.4959 59.1521 54.9328 61.2987 53.8067 63.0966C52.687 64.8977 51.1578 66.2445 49.2127 67.1403L55.2399 73.5769H47.5236L42.9552 68.7526ZM40.0376 63.5061H42.4305C44.7243 63.5061 46.4807 62.9622 47.7027 61.8681C48.9312 60.7676 49.5455 59.1809 49.5455 57.1078C49.5455 55.9562 49.3183 54.9196 48.8672 53.9983C48.4225 53.0769 47.7571 52.3347 46.871 51.7717C45.9816 51.2087 44.8779 50.9271 43.5566 50.9271H40.0376V63.5061Z" fill="#1A1A1A"/>
<path d="M87.6082 58.349V59.2064C87.6082 61.2538 87.2307 63.1797 86.4821 64.9776C85.7399 66.7691 84.7065 68.3527 83.3853 69.7251C82.0608 71.1007 80.5252 72.1661 78.7785 72.9242C77.0286 73.6824 75.1571 74.0631 73.1608 74.0631C71.1645 74.0631 69.2994 73.692 67.5687 72.9498C65.8347 72.2012 64.312 71.1647 63.0003 69.8403C61.6951 68.5095 60.6713 66.9803 59.9291 65.2463C59.1933 63.5156 58.8286 61.6505 58.8286 59.6543C58.8286 57.658 59.1933 55.7865 59.9291 54.0366C60.6713 52.2899 61.6951 50.7543 63.0003 49.4299C64.312 48.1086 65.8347 47.0753 67.5687 46.3331C69.2994 45.5845 71.1517 45.207 73.1224 45.207C75.7233 45.207 78.1131 45.8277 80.2885 47.0625C82.4703 48.291 84.1915 49.9289 85.4455 51.9764L80.8004 55.3547C80.0742 53.9822 79.028 52.8721 77.6652 52.0276C76.3088 51.1766 74.8052 50.7479 73.1608 50.7479C71.6156 50.7479 70.208 51.151 68.9379 51.9508C67.6647 52.7442 66.6537 53.8159 65.9051 55.1627C65.1533 56.5127 64.779 58.0099 64.779 59.6543C64.779 61.2762 65.1533 62.7606 65.9051 64.1075C66.6537 65.4575 67.6647 66.5228 68.9379 67.3066C70.208 68.0936 71.6156 68.4839 73.1608 68.4839C74.8563 68.4839 76.4111 68.0616 77.8188 67.217C79.2328 66.366 80.2533 65.128 80.8771 63.506H73.3144V58.349H87.6082Z" fill="#1A1A1A"/>
<path d="M112.426 73.5769L110.596 69.8275H97.0832L95.2788 73.5769H89.29L104.006 45.207L118.748 73.5769H112.426ZM103.776 55.9049L99.5913 64.5937H108.05L103.776 55.9049Z" fill="#1A1A1A"/>
<path d="M141.513 61.831V45.6946H147.31V74.0644L127.475 57.5569V73.5781H121.678V45.1699L141.513 61.831Z" fill="#1A1A1A"/>
<path d="M158.916 45.6934V73.5769H153.119V45.6934H158.916Z" fill="#1A1A1A"/>
<path d="M186.386 61.2666H192.259C192.061 63.0581 191.549 64.7313 190.724 66.2829C189.905 67.828 188.846 69.1813 187.55 70.3394C186.251 71.5006 184.78 72.4124 183.135 73.0778C181.488 73.7336 179.738 74.0631 177.889 74.0631C175.893 74.0631 174.027 73.692 172.297 72.9498C170.563 72.2012 169.04 71.1647 167.728 69.8403C166.423 68.5095 165.399 66.9803 164.657 65.2463C163.921 63.5156 163.557 61.6505 163.557 59.6543C163.557 57.658 163.921 55.7865 164.657 54.0366C165.399 52.2899 166.423 50.7543 167.728 49.4299C169.04 48.1086 170.563 47.0753 172.297 46.3331C174.027 45.5845 175.88 45.207 177.85 45.207C180.451 45.207 182.841 45.8277 185.017 47.0625C187.198 48.291 188.919 49.9289 190.174 51.9764L185.644 55.2011C184.645 53.7007 183.462 52.5842 182.099 51.8484C180.742 51.1158 179.338 50.7479 177.889 50.7479C176.344 50.7479 174.936 51.151 173.666 51.9508C172.393 52.7442 171.382 53.8159 170.633 55.1627C169.881 56.5127 169.507 58.0099 169.507 59.6543C169.507 61.2762 169.881 62.7606 170.633 64.1075C171.382 65.4575 172.393 66.5228 173.666 67.3066C174.936 68.0936 176.344 68.4839 177.889 68.4839C179.287 68.4839 180.579 68.1735 181.766 67.5497C182.95 66.9291 183.954 66.0749 184.773 64.9904C185.599 63.8995 186.136 62.6583 186.386 61.2666Z" fill="#1A1A1A"/>
<path d="M40.547 90.0007C39.8304 90.0007 39.165 89.8792 38.5508 89.6424C37.9365 89.4057 37.4023 89.0666 36.9512 88.6315C36.4969 88.19 36.1482 87.6558 35.9019 87.0319C35.6523 86.4113 35.5308 85.7139 35.5308 84.9461C35.5308 84.1783 35.6523 83.4841 35.9019 82.8603C36.1482 82.2397 36.4969 81.7086 36.9512 81.2735C37.4023 80.832 37.9365 80.4929 38.5508 80.2626C39.165 80.0259 39.8304 79.9043 40.547 79.9043C41.2796 79.9043 41.9547 80.0259 42.5689 80.2626C43.1831 80.4929 43.7142 80.8352 44.1685 81.2863C44.6195 81.731 44.9619 82.2653 45.1922 82.8859L43.2855 83.5769C43.1383 83.193 42.9304 82.8699 42.6585 82.6044C42.3929 82.3324 42.0826 82.1277 41.7243 81.9901C41.366 81.8462 40.9725 81.7726 40.547 81.7726C40.1279 81.7726 39.7344 81.8462 39.3697 81.9901C39.0018 82.1373 38.6819 82.3452 38.41 82.6172C38.1445 82.8923 37.9365 83.225 37.783 83.6153C37.6358 83.9992 37.5654 84.4439 37.5654 84.9461C37.5654 85.442 37.6358 85.8867 37.783 86.277C37.9365 86.6704 38.1445 87.0032 38.41 87.2751C38.6819 87.5502 39.0018 87.7581 39.3697 87.9021C39.7344 88.0493 40.1279 88.1196 40.547 88.1196C40.9725 88.1196 41.366 88.0525 41.7243 87.9149C42.0826 87.7709 42.3929 87.563 42.6585 87.2879C42.9304 87.016 43.1383 86.6928 43.2855 86.3153L45.1922 87.0064C44.9619 87.6302 44.6195 88.1644 44.1685 88.6059C43.7142 89.0506 43.1831 89.3961 42.5689 89.6424C41.9547 89.8792 41.2796 90.0007 40.547 90.0007Z" fill="#1A1A1A"/>
<path d="M47.9014 89.859V80.0312H49.9488V84.0494H54.0949V80.0312H56.1424V89.859H54.0949V85.8153H49.9488V89.859H47.9014Z" fill="#1A1A1A"/>
<path d="M65.4226 81.8356H61.7756V84.0621H65.0003V85.8281H61.7756V88.0547H65.4226V89.859H59.7153V80.0312H65.4226V81.8356Z" fill="#1A1A1A"/>
<path d="M79.8155 89.859H77.7809L77.141 82.4498L74.6457 89.859H73.3276L70.8451 82.4498L70.1925 89.859H68.145L68.9768 80.0312H71.8816L73.9803 86.1992L76.1045 80.0312H79.0093L79.8155 89.859Z" fill="#1A1A1A"/>
<path d="M82.9839 89.859V80.0312H85.0313V89.859H82.9839Z" fill="#1A1A1A"/>
<path d="M92.9528 90.0007C92.2362 90.0007 91.5708 89.8792 90.9565 89.6424C90.3423 89.4057 89.808 89.0666 89.3569 88.6315C88.9027 88.19 88.554 87.6558 88.3076 87.0319C88.0581 86.4113 87.9365 85.7139 87.9365 84.9461C87.9365 84.1783 88.0581 83.4841 88.3076 82.8603C88.554 82.2397 88.9027 81.7086 89.3569 81.2735C89.808 80.832 90.3423 80.4929 90.9565 80.2626C91.5708 80.0259 92.2362 79.9043 92.9528 79.9043C93.6854 79.9043 94.3604 80.0259 94.9747 80.2626C95.5889 80.4929 96.1199 80.8352 96.5742 81.2863C97.0253 81.731 97.3676 82.2653 97.598 82.8859L95.6913 83.5769C95.5441 83.193 95.3362 82.8699 95.0642 82.6044C94.7987 82.3324 94.4884 82.1277 94.1301 81.9901C93.7718 81.8462 93.3783 81.7726 92.9528 81.7726C92.5337 81.7726 92.1402 81.8462 91.7755 81.9901C91.4076 82.1373 91.0877 82.3452 90.8158 82.6172C90.5502 82.8923 90.3423 83.225 90.1887 83.6153C90.0416 83.9992 89.9712 84.4439 89.9712 84.9461C89.9712 85.442 90.0416 85.8867 90.1887 86.277C90.3423 86.6704 90.5502 87.0032 90.8158 87.2751C91.0877 87.5502 91.4076 87.7581 91.7755 87.9021C92.1402 88.0493 92.5337 88.1196 92.9528 88.1196C93.3783 88.1196 93.7718 88.0525 94.1301 87.9149C94.4884 87.7709 94.7987 87.563 95.0642 87.2879C95.3362 87.016 95.5441 86.6928 95.6913 86.3153L97.598 87.0064C97.3676 87.6302 97.0253 88.1644 96.5742 88.6059C96.1199 89.0506 95.5889 89.3961 94.9747 89.6424C94.3604 89.8792 93.6854 90.0007 92.9528 90.0007Z" fill="#1A1A1A"/>
<path d="M106.885 89.859L106.168 87.8371H102.048L101.331 89.859H99.2451L102.867 80.0312H105.362L108.971 89.859H106.885ZM102.649 86.1224H105.579L104.108 81.9635L102.649 86.1224Z" fill="#1A1A1A"/>
<path d="M113.531 88.0547H116.602V89.859H111.483V80.0312H113.531V88.0547Z" fill="#1A1A1A"/>
<path d="M129.655 81.8356H125.919V84.0621H129.143V85.8281H125.919V89.859H123.858V80.0312H129.655V81.8356Z" fill="#1A1A1A"/>
<path d="M137.628 89.859L135.337 86.2376H134.48V89.859H132.433V80.0312H135.67C136.086 80.0312 136.441 80.0504 136.732 80.0824C137.03 80.1176 137.286 80.1688 137.5 80.236C137.721 80.2968 137.916 80.3704 138.089 80.4535C138.565 80.7031 138.911 81.0518 139.125 81.5028C139.336 81.9571 139.445 82.4754 139.445 83.064C139.445 83.6783 139.333 84.2221 139.112 84.6892C138.898 85.1594 138.543 85.5273 138.05 85.7897C137.862 85.892 137.654 85.9784 137.423 86.0456L140.034 89.859H137.628ZM134.48 81.746V84.6252H135.376C135.766 84.6252 136.08 84.6124 136.31 84.5868C136.54 84.5612 136.732 84.494 136.886 84.3821C137.219 84.1517 137.385 83.755 137.385 83.192C137.385 82.9105 137.34 82.6769 137.257 82.4882C137.18 82.293 137.068 82.1395 136.924 82.0275C136.771 81.9091 136.572 81.8324 136.336 81.7972C136.096 81.7652 135.776 81.746 135.376 81.746H134.48Z" fill="#1A1A1A"/>
<path d="M148.418 81.8356H144.771V84.0621H147.995V85.8281H144.771V88.0547H148.418V89.859H142.71V80.0312H148.418V81.8356Z" fill="#1A1A1A"/>
<path d="M157.257 81.8356H153.61V84.0621H156.834V85.8281H153.61V88.0547H157.257V89.859H151.549V80.0312H157.257V81.8356Z" fill="#1A1A1A"/>
</svg>
