<svg width="125" height="90" viewBox="0 0 125 90" fill="none" xmlns="http://www.w3.org/2000/svg">
<mask id="mask0_292_18460" style="mask-type:luminance" maskUnits="userSpaceOnUse" x="0" y="0" width="125" height="90">
<path d="M0.551758 0H124.944V90H0.551758V0Z" fill="white"/>
</mask>
<g mask="url(#mask0_292_18460)">
<path d="M28.9163 51.9038C29.3924 52.6197 32.1346 56.5118 33.4595 55.9903C34.5706 55.5497 34.4977 54.1665 34.7083 53.1963C35.3934 50.012 37.1556 47.1791 37.8165 43.9576C38.4336 40.9498 38.6037 37.5954 37.3176 34.7285C36.6276 33.1947 36.0445 31.6187 35.5408 30.0152C34.5415 26.839 33.866 23.5656 33.3429 20.276C33.0432 18.3923 32.7954 16.4989 32.5654 14.6038C32.3694 12.9922 32.0585 10.2177 29.8929 10.2922C28.2587 10.3473 27.2528 12.1289 27.4747 13.632C27.8278 16.0324 29.8638 17.7768 30.6963 19.9861C31.4154 21.8957 31.7442 23.9333 32.0892 25.9336C32.648 29.2021 32.9995 32.5096 33.2732 35.8137C33.4498 37.9485 33.7284 40.195 33.5486 42.3411C33.4222 43.862 32.6529 45.5271 30.9733 44.437C30.0387 43.8328 29.5091 42.7574 28.5324 42.2196C27.4164 41.6041 25.7757 41.8001 24.7974 42.6197C22.7258 44.3609 25.7076 47.252 26.707 48.6725C27.4553 49.7431 28.1955 50.817 28.9163 51.9038ZM46.3328 45.9482C45.5829 48.0797 45.8226 50.3262 46.2195 52.5031C46.5078 54.0871 46.8074 55.7263 46.8414 57.4529C46.856 58.1655 46.8285 58.8993 46.8009 59.6751C46.7329 61.494 46.4673 63.99 47.5298 65.6064C48.4644 67.0317 50.2898 66.3579 51.6649 66.2478C52.8003 66.1571 53.9308 66.2851 55.0112 66.6527C56.477 67.15 57.5152 68.0862 58.7818 66.7191C60.3222 65.0525 60.5683 62.516 62.1686 60.7554C63.7608 59.0143 65.8081 57.7347 67.8894 56.6641C69.7229 55.7198 70.9571 54.8419 71.4349 52.7104C71.822 50.9627 72.5347 48.9316 74.177 47.989C76.0381 46.9184 78.5745 47.5193 79.7245 49.3366C80.2153 50.1156 80.8729 51.7807 79.7293 54.1892C78.9389 55.8623 77.1848 56.7969 76.2875 58.3971C75.5198 59.7723 75.2752 61.3677 74.582 62.7768C73.8045 64.3592 72.6659 65.7408 71.9742 67.3686C71.673 68.0845 71.5661 69.22 72.4585 69.5552C73.5794 69.9747 74.6824 69.1195 75.5181 68.4733C77.5217 66.9167 79.6986 65.4363 82.3047 65.2112C83.8207 65.08 85.2736 65.723 86.788 65.6485C89.1673 65.5287 90.8243 63.7907 92.3257 62.1338C93.4433 60.9012 94.7261 60.0347 95.9344 58.9316C97.0536 57.9177 97.397 56.711 96.8042 55.2841C96.1174 53.632 94.6872 51.8325 92.9525 51.1879C90.7708 50.378 88.568 51.3094 86.5564 52.1435C85.1408 52.7347 83.3575 53.2222 82.4715 51.5572C81.7766 50.2566 82.0034 48.3874 82.4197 47.0382C84.4265 40.5157 85.6915 33.8944 90.1942 28.5202C91.7928 26.6122 94.7423 24.6233 94.8395 21.9151C94.9205 19.6427 92.925 18.0262 90.8955 19.4321C88.7025 20.9546 87.5185 24.4856 86.5661 26.8811C85.4501 29.6897 83.9568 32.482 82.2933 34.897C80.5619 37.4091 78.8515 39.9958 76.8949 42.3411C75.9749 43.449 74.9739 44.6508 73.6539 45.3003C71.8155 46.2025 69.7877 44.897 67.9202 46.0308C67.188 46.4762 65.7983 47.6391 64.9772 46.7515C64.2013 45.9093 64.3601 43.8247 64.3293 42.8124C64.2289 39.7545 63.8547 36.6787 64.19 33.6223C64.3957 31.7418 67.9266 24.7431 64.6451 23.4879C62.0779 22.5063 62.2949 27.8205 62.1573 28.9446C61.8544 31.4017 61.4155 33.8993 60.5683 36.2332C59.6289 38.8183 56.3393 45.6307 53.9891 45.6307C51.6406 45.6307 53.7559 42.3411 52.58 40.4606C51.7021 39.058 50.6348 39.9877 49.7682 40.8623C48.5842 42.0512 47.5006 43.3891 46.7653 44.9051C46.605 45.242 46.4576 45.5918 46.3328 45.9482ZM114.371 40.932C111.318 41.1668 112.258 44.4564 110.847 46.8066C110.228 47.8319 109.196 48.6903 108.356 49.5261C104.363 53.5041 100.207 57.3622 95.9879 61.102C93.3866 63.4052 90.1343 68.3291 86.0688 67.4804C83.5502 66.9556 81.869 66.7191 79.5269 68.01C77.4391 69.1633 75.57 70.8056 73.2085 71.4049C69.7342 72.2877 68.8013 68.6369 70.4469 66.183C71.5159 64.5909 72.648 63.036 73.2473 61.196C73.7591 59.62 74.0021 58.0068 75.0695 56.6706C75.9959 55.5141 77.3808 54.7609 78.0335 53.3842C79.4443 50.4072 77.2496 48.8409 75.3708 49.4694C73.2651 50.1707 73.5016 53.585 72.6286 55.2128C71.545 57.2277 69.292 57.955 67.4359 59.0385C65.11 60.3959 63.0708 62.3346 61.6795 64.6411C60.8777 65.9708 60.3513 67.5306 59.3066 68.7017C57.2949 70.953 55.131 67.8157 52.8975 67.6456C51.0624 67.5063 49.3568 69.3576 47.4715 68.1283C44.0134 65.8769 45.0322 60.9595 44.9642 57.4885C44.9059 54.5941 44.0021 51.8115 43.811 48.9333C43.6004 45.7846 45.5781 42.6926 45.4242 39.4888C45.3141 37.1467 42.9234 34.8873 40.9814 37.2569C39.5787 38.9721 40.1586 41.8196 39.8719 43.8798C39.373 47.4448 37.2658 50.5206 36.4495 54.0029C36.1093 55.459 36.0413 57.6181 34.4135 58.1979C32.2302 58.9754 29.8233 56.2705 28.5405 54.8581C27.0066 53.1704 25.7757 51.2284 24.4945 49.3495C22.1621 45.9206 19.7666 42.6991 15.8988 40.9644C12.1686 39.2928 10.4452 35.378 9.11386 31.7694C8.19711 29.2815 6.97424 26.8763 5.27032 24.8322C4.46371 23.8636 3.38985 22.8724 2.00987 23.0651C0.676861 23.2481 0.202291 24.4823 0.819395 25.6696C1.60657 27.1889 2.9088 28.3842 4.10252 29.5747C7.25445 32.7282 7.66585 38.3793 9.60462 42.2634C11.4252 45.9061 13.5567 49.4257 15.8081 52.8173C17.2107 54.9278 18.7721 56.9329 20.1505 59.0596C22.6545 62.9291 24.6532 67.103 26.4705 71.3288C27.4618 73.6352 28.2457 76.0308 29.2969 78.3129C30.1132 80.0897 31.1271 81.5831 32.2966 82.8416C36.2243 87.0625 41.9321 88.6304 48.087 89.3479C59.4005 90.6631 70.8486 89.8857 82.0439 87.9712C84.4524 87.5581 86.4819 86.3418 87.993 84.4257C91.0737 80.519 93.4304 76.1263 96.1207 71.9556C98.9033 67.644 102.024 63.5624 104.917 59.3269C106.694 56.7305 107.794 53.6174 110.019 51.3466C111.963 49.3673 114.611 48.1137 116.134 45.7295C117.233 44.0094 117.138 40.7198 114.371 40.932ZM123.989 32.5436C122.881 31.6446 121.255 31.8115 120.353 32.9193C119.454 34.0288 118.549 36.9394 119.658 37.8384C120.766 38.7373 123.466 37.286 124.367 36.1782C125.265 35.0719 125.097 33.4425 123.989 32.5436ZM97.1346 16.4389C98.0384 16.4389 98.7786 15.702 98.7786 14.7933C98.7786 13.8847 98.0384 13.151 97.1346 13.151C96.226 13.151 95.4906 13.8847 95.4906 14.7933C95.4906 15.702 96.226 16.4389 97.1346 16.4389ZM69.42 9.7998C70.2396 9.7998 70.9069 9.13573 70.9069 8.31292C70.9069 7.49174 70.2396 6.82604 69.42 6.82604C68.5972 6.82604 67.9299 7.49174 67.9299 8.31292C67.9299 9.13573 68.5972 9.7998 69.42 9.7998ZM65.57 19.9099C67.4974 20.9611 70.5457 16.1393 67.8327 14.6314C65.1181 13.1267 63.9114 19.0062 65.57 19.9099ZM44.8265 31.4163C48.0173 32.4788 49.4086 25.7781 46.2357 25.0735C43.0643 24.3673 42.0066 30.4768 44.8265 31.4163ZM27.6739 3.33884C30.0047 2.563 28.6134 -0.420476 26.7361 0.0524754C24.8541 0.518948 26.9694 3.57369 27.6739 3.33884ZM1.36199 12.5015C4.04421 11.4956 6.76368 18.1412 4.41512 18.8458C2.06656 19.5504 -0.518474 13.2093 1.36199 12.5015Z" fill="#1A1A1A"/>
</g>
</svg>
