<svg width="87" height="90" viewBox="0 0 87 90" fill="none" xmlns="http://www.w3.org/2000/svg">
<mask id="mask0_292_18469" style="mask-type:luminance" maskUnits="userSpaceOnUse" x="0" y="0" width="87" height="90">
<path d="M0.129395 0H86.3668V90H0.129395V0Z" fill="white"/>
</mask>
<g mask="url(#mask0_292_18469)">
<path d="M85.5344 61.438C85.5026 61.3369 85.478 61.2287 85.445 61.1264C85.3627 60.8454 85.2734 60.5714 85.184 60.3045C85.1581 60.234 85.1393 60.1705 85.1146 60.107C85.0888 60.0423 85.0699 59.9788 85.0441 59.9153C85.037 59.8895 85.0253 59.8648 85.0182 59.8448C84.9547 59.679 84.8842 59.5132 84.8077 59.3545C84.6937 59.1052 84.5785 58.863 84.4962 58.6149C84.3551 58.214 84.3174 58.0282 84.1458 57.6848C84.3233 57.5884 83.833 56.4103 83.9353 55.7918C84.0564 55.0711 84.4962 54.7912 84.7125 54.0963C85.1781 52.5925 84.6302 50.6924 84.7184 49.0675C84.7701 48.061 84.9865 47.0345 84.9547 45.9892C84.9159 44.5994 83.9729 43.0827 83.3357 41.961C81.9212 39.4753 80.7477 37.1049 79.8306 34.1795C79.6143 33.4847 79.499 32.9038 79.1228 32.3312C78.7406 31.7504 77.867 29.9408 77.5801 29.22C77.1663 28.1877 73.1004 25.976 73.0745 25.8232L72.1374 26.0971C72.1315 26.0148 72.1245 25.9513 72.1186 25.9067C72.1127 25.842 72.2456 25.9067 71.6341 25.6574C71.1815 25.4469 70.8052 25.4728 70.3337 25.2176C67.4918 23.4269 65.8974 24.2617 63.5717 23.8537C63.6094 22.9872 63.1578 22.19 62.4818 21.6044C61.4753 20.9225 60.6075 20.7249 60.4747 19.3986C60.2642 18.0218 60.5887 17.7737 61.7422 17.5891C62.4183 17.4362 62.9721 16.9894 63.6223 16.6967C64.4324 16.4039 65.2096 16.097 65.9621 15.5561C67.6447 14.5744 68.9769 13.1587 69.8364 11.375C70.5066 9.36088 68.7464 7.51842 66.8346 7.16215C65.4518 6.76003 64.1138 6.13568 62.6029 6.26972C62.4242 3.68768 60.0596 0.896343 57.9503 0.322555C56.5734 0.137955 54.4581 -0.161872 53.7633 0.393103C52.9661 1.21498 52.163 2.07566 51.755 3.19737C51.5516 4.28733 50.9778 5.35143 50.551 6.25679C48.3264 6.66479 46.3252 7.16803 44.1899 7.92642C42.1252 8.8694 42.7108 11.6419 43.8713 13.134C45.6303 15.435 48.1606 16.6132 50.9143 17.6208C51.3223 17.8125 51.1048 18.3733 51.494 18.6979C51.6339 19.2199 52.718 19.6797 52.4123 20.2146C51.354 21.3751 51.073 20.8966 51.0095 22.4322C50.8755 22.9484 50.2888 22.4839 49.9513 22.3311C48.8931 21.5727 47.7267 22.0054 46.5356 21.7443C43.3739 21.2729 42.1053 21.1706 40.1746 23.14C39.3845 23.7456 37.9888 23.8796 37.6384 24.9061C36.9365 24.8543 36.2545 25.3388 35.6936 25.7597C35.3621 25.9631 35.1199 26.1994 34.8212 26.531C34.4191 26.8555 33.6419 26.4605 33.2527 27.066C32.4179 28.5381 31.0034 28.0219 29.6971 28.5381C25.242 29.7492 25.108 28.4816 22.2202 29.494C21.1691 29.7245 20.1238 29.7045 19.1161 29.9279C18.1096 30.2018 16.4459 31.7892 15.9109 30.5593C15.4324 29.7115 15.0949 29.1883 14.3236 29.0425C14.273 28.5322 14.2213 28.0219 14.1766 27.5057C14.3553 27.0213 14.5975 26.4993 14.9032 25.8749C16.159 23.3446 17.5488 21.2223 18.4988 18.4815C19.3525 16.0206 20.888 13.8853 21.2902 11.2668C20.6399 12.3498 19.4865 13.8218 18.7857 15.167C17.1349 18.3604 15.1267 21.3869 13.9473 24.7203C13.8262 23.5927 13.6922 22.4651 13.7886 21.3046C13.8897 20.0112 14.3553 18.7684 14.808 17.5762C15.2607 16.391 15.5981 14.9565 16.2425 13.8536C15.7193 14.338 15.4194 15.1728 15.0055 15.7725C14.3553 16.7155 13.8015 17.6526 13.45 18.7614C12.7809 20.8519 12.5328 23.1847 12.8515 25.3834C12.9467 26.0395 13.1066 26.658 13.2466 27.2835C13.1701 27.6974 13.1313 28.1301 13.1196 28.5828C13.049 28.2194 12.9667 27.8632 12.8703 27.5187C12.5705 25.5234 12.2013 23.548 11.4876 21.6174C11.4429 21.4963 11.3982 21.381 11.3535 21.2658C11.5005 21.0365 11.6463 20.8072 11.7556 20.5462C11.9214 20.1511 12.086 19.762 12.099 19.3222C12.106 19.0036 12.1507 18.5897 11.9979 18.2957C11.698 18.4745 11.4934 18.9271 11.3476 19.2399C11.1301 19.7043 11.1372 20.2217 11.1431 20.7249C10.895 20.0877 10.6457 19.4621 10.4235 18.819C10.5951 18.5321 10.7797 18.2711 10.9138 17.9524C11.0796 17.5573 11.2454 17.1682 11.2583 16.7284C11.2642 16.4098 11.3088 15.9959 11.156 15.7019C10.8562 15.8807 10.6528 16.3333 10.5058 16.6461C10.2577 17.1811 10.3024 17.7866 10.3024 18.3604C10.2953 18.3851 10.2953 18.411 10.2894 18.4368C10.1742 18.0794 10.066 17.7102 9.97079 17.3281C9.83087 16.7602 9.73446 16.1864 9.61335 15.6196C9.75445 15.3962 9.89437 15.1799 9.99666 14.9306C10.1613 14.5356 10.3271 14.1475 10.34 13.7078C10.347 13.3892 10.3917 12.9741 10.2377 12.6813C9.93905 12.86 9.73446 13.3127 9.58866 13.6243C9.42287 13.9818 9.39113 14.3639 9.38407 14.7531C9.37114 14.7213 9.36526 14.6884 9.3582 14.6637C9.3147 14.5356 9.25003 14.4721 9.19359 14.358C9.14186 14.2557 9.12304 14.1276 9.0525 14.0323C8.91258 13.8407 8.81734 13.6314 8.62568 13.4785C8.47871 13.3633 8.41522 13.1846 8.2753 13.0576C8.12244 12.9177 7.97547 12.6943 7.88611 12.5026C7.84143 12.4074 7.8038 12.3051 7.765 12.2028C7.72032 12.0946 7.67564 11.9935 7.6192 11.8912C7.55454 11.783 7.48516 11.6866 7.41462 11.5855C7.31938 11.4514 7.2359 11.3362 7.07716 11.2727C7.12772 12.5214 8.63274 13.8795 8.93139 15.2304C8.95138 15.3069 8.96314 15.3774 8.98313 15.4538C8.97607 15.4538 8.97607 15.4468 8.97019 15.4409C8.56219 15.0329 8.16712 14.5802 7.61215 14.3768C7.29351 14.2616 6.82789 14.0829 6.48456 14.1722C6.5798 14.4909 6.9055 14.7531 7.14066 14.9694C7.4593 15.2692 7.85436 15.4221 8.24943 15.5879C8.52339 15.6961 8.79147 15.7537 9.06543 15.8172C9.22534 16.4862 9.40994 17.1423 9.60042 17.8243C9.60747 17.856 9.62041 17.8889 9.62628 17.9207C9.60042 17.9007 9.5816 17.8819 9.55574 17.8689C9.14891 17.4609 8.75267 17.0094 8.19887 16.8048C7.88023 16.6896 7.41462 16.5121 7.07011 16.6014C7.16652 16.9201 7.49104 17.1811 7.72738 17.3974C8.04602 17.6973 8.44108 17.8501 8.83615 18.0159C9.13598 18.137 9.42875 18.1876 9.73446 18.264C9.97079 18.9401 10.2765 19.5268 10.5375 20.1829C10.1683 19.8066 9.79795 19.4116 9.28883 19.227C8.97019 19.1117 8.50458 18.9342 8.16007 19.0224C8.25648 19.341 8.581 19.6032 8.81734 19.8196C9.13598 20.1194 9.53105 20.2723 9.92611 20.438C10.1871 20.5462 10.4423 20.5968 10.7104 20.6544C11.1748 22.0124 11.5064 23.7267 11.825 25.1671C9.88143 21.6938 6.87963 18.953 4.24703 15.9124C3.25936 14.7648 1.78726 13.5996 0.90777 12.6943C1.90837 15.1481 3.89664 16.8683 5.29936 19.0612C6.86082 21.508 8.70211 23.2482 10.5128 25.4222C11.6463 26.7862 12.1954 27.5892 12.4882 28.9531H12.4752C12.38 28.6909 12.2589 28.4487 12.1119 28.2453C11.6087 27.5575 10.8879 26.9637 10.1295 26.5569C9.37819 26.1548 8.7656 25.5304 8.01427 25.0907C6.4975 24.2112 4.06831 23.0824 2.25876 23.4904C1.73553 23.6056 0.333983 24.083 0.129395 24.625C0.658502 24.6638 1.01594 24.3828 1.50037 24.3135C1.89544 24.2558 2.36105 24.0901 2.73613 24.1347C3.15119 24.1794 3.54625 24.3699 3.97895 24.3958C4.45161 24.4275 4.77025 24.4087 5.20295 24.638C5.95546 25.046 6.63036 25.6386 7.34524 26.0783C8.34585 26.6897 9.2371 27.7103 10.3588 28.1054C10.9526 28.3159 11.3218 28.3406 11.691 28.9273C11.698 28.9332 11.698 28.9402 11.7039 28.9461C11.0666 28.9531 10.4364 29.0296 9.93905 29.2847C9.39701 29.5199 9.36526 29.922 9.26296 30.4758C9.08424 31.0625 8.75972 31.5599 8.77854 32.2865C9.20535 33.44 8.78559 32.8721 8.84203 33.6058C9.40994 34.7145 9.42287 35.8551 10.621 36.7475C11.0537 37.1049 11.564 37.0732 12.2271 37.0085C12.5199 37.0026 12.8068 36.9838 13.0808 36.9521C13.0937 37.2637 13.1066 37.5764 13.1196 37.8762C13.1701 39.3354 13.4382 40.9415 13.7945 42.4712C13.718 43.0133 13.47 43.5036 13.4946 44.0903C13.5205 44.6759 13.5593 45.205 13.4441 45.7599C13.5523 45.3837 13.6992 45.0262 13.6863 44.6253C13.6734 44.262 13.6099 44.0456 13.7439 43.7011C13.8133 43.5165 13.8838 43.3119 13.9473 43.1085C14.0555 43.5353 14.1707 43.9563 14.286 44.3643C14.3624 44.8228 14.4506 45.2814 14.5599 45.7282C14.4576 46.0022 14.4952 46.2691 14.4447 46.5948C14.3941 46.9063 14.3424 47.245 14.2601 47.5695C14.4188 47.2638 14.6422 46.9769 14.6422 46.6136C14.6422 46.2503 14.7057 46.1421 14.8468 45.8493C14.9103 45.7153 14.9421 45.5554 14.9609 45.3966C14.9926 45.5307 15.0244 45.6635 15.0561 45.7917C15.1267 46.1162 15.3242 46.4348 15.6052 46.6324C15.7004 47.1109 15.6499 47.6718 15.7263 48.1245C15.8086 47.7223 15.8592 47.2955 15.8027 46.9263C15.7769 46.7605 15.7263 46.6324 15.6875 46.4925C15.6875 45.9892 15.6687 45.486 15.624 44.9886C15.7769 45.1474 15.9297 45.3202 16.0567 45.4919C16.4012 45.9704 16.433 46.7347 16.6375 47.2897C16.6505 46.8817 16.6246 46.4548 16.4906 46.0974C16.4271 45.9128 16.3318 45.7846 16.2613 45.613C16.1849 45.4413 16.2166 45.2238 16.1343 45.0521C16.0003 44.7782 15.7451 44.5618 15.5923 44.2996C15.5793 44.2749 15.5664 44.2491 15.5535 44.2302C15.5347 44.0703 15.5158 43.9175 15.4958 43.7587C15.6111 43.8281 15.7193 43.8987 15.8215 43.9751C16.293 44.3255 16.5482 45.0521 16.9045 45.5236C16.7963 45.1285 16.6434 44.7276 16.4141 44.4278C16.293 44.2679 16.1719 44.1726 16.0508 44.0327C15.9297 43.8928 15.8921 43.6753 15.7639 43.5353C15.6687 43.433 15.5535 43.3507 15.4324 43.2743C15.2419 41.834 14.9926 40.3936 14.9291 38.9403C14.8974 38.1878 14.8268 37.4424 14.7375 36.6969C15.1772 36.6005 15.617 36.4994 16.0826 36.3842C16.0955 36.5499 16.7199 36.4418 17.1784 36.5182C17.7722 36.6334 17.8992 37.1872 18.199 37.5952C18.5306 38.0608 19.0079 38.2713 19.5182 38.443C20.4295 38.7228 21.3149 38.7428 22.1379 39.1626C22.9857 39.5706 23.6994 40.1314 24.5847 40.1197C26.5166 39.9151 28.1545 38.7299 29.9452 38.2643C31.5125 37.6775 33.2398 37.5576 34.8906 37.2319C36.4273 36.1737 38.0264 35.8621 39.729 35.9444C39.4538 37.0214 39.6643 38.169 39.4291 39.2907C38.3897 44.5618 39.2057 44.5865 39.1481 47.8634C38.1416 57.1875 39.7666 56.2504 38.0135 60.2469C37.2868 62.6808 41.6338 61.8719 42.01 63.8989C42.1182 65.2628 42.01 66.3399 42.2463 67.6591C42.3475 68.7749 41.9971 69.979 41.9724 71.1195C42.2463 74.3388 42.4568 77.4547 42.545 80.6928C42.7367 83.2043 43.0682 85.6641 42.9401 88.2132C46.4592 89.6418 50.277 89.1373 54.5275 89.6535C55.6939 89.6853 55.4458 88.6082 55.3694 87.7358C55.3623 87.0092 55.5093 86.1743 55.6234 85.4289C55.9302 83.3183 56.3829 81.1008 56.8544 79.1125C57.1084 77.6146 56.8732 75.3711 57.8868 74.3517C59.2824 76.8491 59.2566 79.858 59.7539 82.6493C60.6722 85.7087 60.3536 90.1638 61.1308 89.8393C63.7375 90.1509 64.6488 89.8322 66.4971 89.3349C68.2185 89.0104 70.0786 88.9598 71.8634 89.048C72.0551 89.048 72.1891 89.048 72.2902 89.055C72.3032 89.0809 72.4243 89.0868 72.5524 89.0927C72.5583 89.0609 72.5583 89.0292 72.5642 88.9974C72.5642 88.9845 72.5713 88.9716 72.5713 88.9598C72.6536 88.2073 72.6665 87.5829 72.7171 86.9139C73.138 82.6752 74.0116 78.9714 73.954 76.7033C73.7435 73.9943 73.9481 71.3934 73.6671 68.7361C73.6612 67.8884 73.0239 66.6585 73.0427 65.9131C73.546 65.2946 75.1709 66.6268 76.0575 66.1165C76.7453 65.8684 76.5478 65.4533 76.3314 64.7337C76.1398 64.1153 76.0446 63.4462 76.0316 62.7831C75.7388 56.9512 75.1709 52.9241 74.2221 44.7276C74.6994 46.0715 75.0828 47.4801 75.2603 48.9087C75.3943 50.0175 75.8082 50.5713 76.1915 51.5084C76.5995 52.509 76.9299 53.599 77.2486 54.6631C77.5684 55.7154 77.7401 56.2692 78.3515 57.0158C78.8547 57.6214 79.1169 58.4115 79.499 59.0805C79.3203 60.2398 78.422 60.6232 78.3326 62.0376C78.3197 62.2352 78.3268 62.4139 78.3456 62.5856C78.3715 62.8148 78.415 63.0324 78.4667 63.2487C78.4926 63.3439 78.5114 63.4462 78.5361 63.5485C78.5431 63.5732 78.549 63.5991 78.556 63.6308C78.5878 63.7778 78.6195 63.9307 78.6513 64.0965C78.6572 64.1341 78.6642 64.1658 78.6701 64.1987C78.6772 64.2105 78.6772 64.2305 78.6772 64.2434C78.7019 64.3575 78.7218 64.4786 78.7465 64.5997C78.7724 64.7337 78.7983 64.8678 78.83 65.0077C78.83 65.0136 78.83 65.0206 78.83 65.0265C78.8935 65.3651 78.9699 65.7085 79.0534 66.053C79.2827 67.0218 79.5813 67.9519 80.0152 68.4681C80.4103 68.9396 80.4738 68.7808 80.9076 68.7491C81.539 68.7044 82.2081 69.1124 82.9147 68.6973C83.0934 68.5892 83.1381 68.3023 83.3615 68.2141C83.4568 68.1753 83.6672 68.3728 83.7495 68.3352C84.1199 68.1624 84.2022 67.7485 84.4703 67.4804C84.9935 66.9454 85.3945 66.8243 85.8154 65.6838C86.1587 64.7596 86.3245 64.2305 86.0059 63.1088C85.8401 62.5538 85.6943 61.993 85.5344 61.438Z" fill="#1A1A1A"/>
</g>
</svg>
